<svg xmlns="http://www.w3.org/2000/svg" width="100" height="100" viewBox="0 0 100 100">
  <g id="Gamarat" transform="translate(-1400 -605)">
    <circle id="Ellipse_3" data-name="Ellipse 3" cx="50" cy="50" r="50" transform="translate(1400 605)" fill="#c69934" opacity="0.1"/>
    <path id="path1312" d="M216.385,82.481,181.93,81.3Z" transform="translate(1251.109 585.737)" fill="#c69934"/>
    <g id="_7972028_stones_cliff_silhouette_hand_drawn_icon" data-name="7972028_stones_cliff_silhouette_hand_drawn_icon" transform="translate(1404.888 621.076)">
      <path id="Path_77" data-name="Path 77" d="M40.723,24.9l1.294.767,1.389-.527.719-1.342-.575-1.485L42.208,21.5l-1.246.431L40.1,23.417Z" transform="translate(-9.792 -8.49)" fill="#c69934"/>
      <path id="Path_78" data-name="Path 78" d="M25.229,59.954l3.4-1.246-.287-6.66L21.3,52l.287,6.756Z" transform="translate(0 -24.377)" fill="#c69934"/>
      <path id="Path_79" data-name="Path 79" d="M48.477,61.881l11.307.767,10.253-2.2,1.006-13.8-.287-14.518,1.294-12.7-.24-12.649L63.762,5.2l-7.81.671-.91,8.528.815,9.774-3.5,5.175-4.025,4.791-2.923,7.618-3.737,7.235-7.666,5.127L27.3,60.971l10.158,1.342Z" transform="translate(-3.125)" fill="#c69934"/>
    </g>
  </g>
</svg>
