<svg xmlns="http://www.w3.org/2000/svg" width="100" height="100" viewBox="0 0 100 100">
  <g id="Gear" transform="translate(-1400 -605)">
    <circle id="Ellipse_3" data-name="Ellipse 3" cx="50" cy="50" r="50" transform="translate(1400 605)" fill="#c69934" opacity="0.1"/>
    <path id="path1312" d="M216.385,82.481,181.93,81.3Z" transform="translate(1251.109 585.737)" fill="#c69934"/>
    <path id="_8665514_gear_icon_1_" data-name="8665514_gear_icon (1)" d="M60.069,32.412a1.6,1.6,0,0,0-.8-1.374l-4.55-2.627a19.455,19.455,0,0,0,.323-3.419,19.559,19.559,0,0,0-.326-3.419l4.55-2.627a1.6,1.6,0,0,0,.8-1.374c0-1.377-4.1-9.669-6.234-9.669a1.611,1.611,0,0,0-.805.215l-4.561,2.634a18.745,18.745,0,0,0-5.921-3.415V2.078A1.57,1.57,0,0,0,41.321.533a23.953,23.953,0,0,0-10.051,0,1.575,1.575,0,0,0-1.222,1.544v5.26a18.742,18.742,0,0,0-5.916,3.411l-4.566-2.63a1.6,1.6,0,0,0-.8-.216c-1.925,0-6.234,8-6.234,9.669a1.6,1.6,0,0,0,.8,1.374l4.55,2.627a18.084,18.084,0,0,0,0,6.839l-4.55,2.627a1.6,1.6,0,0,0-.8,1.374c0,1.377,4.1,9.669,6.234,9.669a1.611,1.611,0,0,0,.805-.215l4.561-2.634a18.7,18.7,0,0,0,5.921,3.411V47.9a1.57,1.57,0,0,0,1.223,1.544,24.167,24.167,0,0,0,4.937.537,25.107,25.107,0,0,0,5.026-.533,1.641,1.641,0,0,0,1.31-1.546v-5.26a18.713,18.713,0,0,0,5.921-3.414l4.561,2.634a1.61,1.61,0,0,0,.805.215C55.754,42.077,60.069,34.082,60.069,32.412ZM36.3,32.8a7.81,7.81,0,1,1,7.81-7.81A7.819,7.819,0,0,1,36.3,32.8Z" transform="translate(1413.702 630.007)" fill="#c69934"/>
  </g>
</svg>
