<svg xmlns="http://www.w3.org/2000/svg" width="100" height="100" viewBox="0 0 100 100">
  <g id="Street" transform="translate(-1400 -605)">
    <circle id="Ellipse_3" data-name="Ellipse 3" cx="50" cy="50" r="50" transform="translate(1400 605)" fill="#c69934" opacity="0.1"/>
    <path id="path1312" d="M216.385,82.481,181.93,81.3Z" transform="translate(1251.109 585.737)" fill="#c69934"/>
    <path id="_3078505_city_cityscape_metropolis_road_street_icon" data-name="3078505_city_cityscape_metropolis_road_street_icon" d="M67,82a2.24,2.24,0,0,0,2.23-2.38L65.42,20.1A2.25,2.25,0,0,0,63.18,18H36.82a2.25,2.25,0,0,0-2.24,2.1l-3.8,59.52A2.24,2.24,0,0,0,33,82ZM48,22.58h4.1v7.9H48Zm0,15.79h4.1v7.9H48Zm0,15.8h4.1v7.91H48ZM48,70h4.1v7.9H48Z" transform="translate(1399.995 605)" fill="#c69934"/>
  </g>
</svg>
