<svg xmlns="http://www.w3.org/2000/svg" width="100" height="100" viewBox="0 0 100 100">
  <g id="Tent" transform="translate(-1400 -605)">
    <circle id="Ellipse_3" data-name="Ellipse 3" cx="50" cy="50" r="50" transform="translate(1400 605)" fill="#c69934" opacity="0.1"/>
    <path id="path1312" d="M216.385,82.481,181.93,81.3Z" transform="translate(1251.109 585.737)" fill="#c69934"/>
    <path id="_753960_camping_gear_camp_outdoors_preferences_icon" data-name="753960_camping_gear_camp_outdoors_preferences_icon" d="M62.479,36.622h-.236a1.624,1.624,0,0,0-1.606,1.765V40.87c0,.76-.717.071-.777.011l-5.515-5.454L33.021,13.994h0a1.47,1.47,0,0,0-2.153,0L8.453,36.293v0l-.27.269c-.063.071-.134.164-.2.26L4.186,40.575c-.812.8-.823,0-.823,0v-2.4c0-1.412-1.019-1.541-1.339-1.547h-.36a1.541,1.541,0,0,0-1.6,1.594v10.29s0,1.984,1.484,1.984H1.88c.311-.009,1.484-.163,1.484-2.005v-1.7A3.234,3.234,0,0,1,4.109,44.5L6.8,41.846c.127-.119.577-.508.577.032v6.856a1.671,1.671,0,0,0,1.821,1.758H21.029a2.486,2.486,0,0,0,2.5-1.525l7.917-22.638h0s.493-1.091.885,0c0,0,0,0,0,0l8.03,22.424a2.776,2.776,0,0,0,2.8,1.735H54.4a1.761,1.761,0,0,0,2-1.787V42.693s.1-1.285,1.393,0l2.142,2.12a2.765,2.765,0,0,1,.7,1.815v2.322A1.425,1.425,0,0,0,62.1,50.491h.094c1.743.1,1.743-2.193,1.743-2.193V38.665C63.938,36.806,62.835,36.631,62.479,36.622Z" transform="translate(1418 623)" fill="#c69934"/>
  </g>
</svg>
